<?xml version="1.0" ?><svg height="64" viewBox="0 0 64 64" width="64" xmlns="http://www.w3.org/2000/svg"><defs><style>.cls-1{fill:#006df0;}</style></defs><title/><g data-name="3" id="_3"><path class="cls-1" d="M44.71,33.29,39,27.58V17c0-.34-.01-.68-.04-1v-.11A12.306,12.306,0,0,0,33.5,6.13a1.044,1.044,0,0,0-1,0,12.306,12.306,0,0,0-5.46,9.76V16c-.03.32-.04.66-.04,1V27.58l-5.71,5.71A1.033,1.033,0,0,0,21,34v3a.983.983,0,0,0,.42.81A.939.939,0,0,0,22,38a1.185,1.185,0,0,0,.32-.05L27,36.39V39a1,1,0,0,0,2,0V17h8V39a1,1,0,0,0,2,0V36.39l4.68,1.56A1.185,1.185,0,0,0,44,38a.939.939,0,0,0,.58-.19A.983.983,0,0,0,45,37V34A1.033,1.033,0,0,0,44.71,33.29ZM23,35.61v-1.2l4-4v3.87ZM29.15,15A10.388,10.388,0,0,1,33,8.21,10.56,10.56,0,0,1,36.85,15ZM43,35.61l-4-1.33V30.41l4,4Z"/><path class="cls-1" d="M34.5,23.5h-3a1,1,0,0,1-1-1v-3a1,1,0,0,1,1-1h3a1,1,0,0,1,1,1v3A1,1,0,0,1,34.5,23.5Zm-2-2h1v-1h-1Z"/><path class="cls-1" d="M34.5,26.5h-3a1,1,0,0,1,0-2h3a1,1,0,0,1,0,2Z"/><path class="cls-1" d="M34.5,29.5h-3a1,1,0,0,1,0-2h3a1,1,0,0,1,0,2Z"/><path class="cls-1" d="M33,36a1,1,0,0,1-1-1V31.5a1,1,0,0,1,2,0V35A1,1,0,0,1,33,36Z"/><path class="cls-1" d="M56.71,53.29l-12-12a1.008,1.008,0,0,0-1.42,0L40,44.59l-6.29-6.3a.987.987,0,0,0-.9-.27c-.07.02-.13.04-.19.06a1.1,1.1,0,0,0-.26.15.943.943,0,0,0-.1.1l-3.97,3.96a1.008,1.008,0,0,0,0,1.42,1.014,1.014,0,0,0,1.42,0L32,41.42V44a1.033,1.033,0,0,0,.29.71L33.59,46l-1.3,1.29a1.008,1.008,0,0,0,0,1.42L33.59,50l-1.3,1.29A1.033,1.033,0,0,0,32,52v1H23.27a7.971,7.971,0,0,0,2.67-5H28a1,1,0,0,0,0-2H25.94A8.043,8.043,0,0,0,19,39.06V37a1,1,0,0,0-2,0v2.06A8.043,8.043,0,0,0,10.06,46H8a1,1,0,0,0,0,2h2.06A8.043,8.043,0,0,0,17,54.94V57a1,1,0,0,0,2,0V55H56a.987.987,0,0,0,.92-.62A1,1,0,0,0,56.71,53.29ZM18,53a6,6,0,1,1,6-6A6,6,0,0,1,18,53Zm16,0v-.59l1.71-1.7a1.008,1.008,0,0,0,0-1.42L34.41,48l1.3-1.29a1.008,1.008,0,0,0,0-1.42L34,43.59V41.41l5.29,5.3,4,4a1.014,1.014,0,0,0,1.42,0,1.008,1.008,0,0,0,0-1.42L41.42,46,44,43.41,53.59,53Z"/><path class="cls-1" d="M50,43a3,3,0,1,1,3-3A3,3,0,0,1,50,43Zm0-4a1,1,0,1,0,1,1A1,1,0,0,0,50,39Z"/><path class="cls-1" d="M18,51a4,4,0,1,1,4-4A4,4,0,0,1,18,51Zm0-6a2,2,0,1,0,2,2A2,2,0,0,0,18,45Z"/></g></svg>