<?xml version="1.0" ?><svg height="64" viewBox="0 0 64 64" width="64" xmlns="http://www.w3.org/2000/svg"><defs><style>.cls-1{fill:#78b9eb;}.cls-1,.cls-2{stroke:#006df0;stroke-linecap:round;stroke-linejoin:round;stroke-width:2px;}.cls-2{fill:#fff;}</style></defs><title/><g data-name="3" id="_3"><path class="cls-1" d="M37.96,16H28.04A11.337,11.337,0,0,1,33,7,11.337,11.337,0,0,1,37.96,16Z"/><path class="cls-2" d="M28,39V17c0-.34.01-.68.04-1h9.92c.03.32.04.66.04,1V39"/><polygon class="cls-1" points="22 37 28 35 28 28 22 34 22 37"/><polygon class="cls-1" points="44 37 38 35 38 28 44 34 44 37"/><rect class="cls-1" height="3" width="3" x="31.5" y="19.5"/><line class="cls-1" x1="31.5" x2="34.5" y1="25.5" y2="25.5"/><line class="cls-1" x1="31.5" x2="34.5" y1="28.5" y2="28.5"/><line class="cls-1" x1="33" x2="33" y1="35" y2="31.5"/><polygon class="cls-1" points="44 37 38 35 38 28 44 34 44 37"/><polyline class="cls-2" points="25 47 18 54 33 54 48 54 44 50 40 46 33 39 29 43"/><polygon class="cls-1" points="56 54 33 54 33 52 35 50 33 48 35 46 33 44 33 39 40 46 44 42 56 54"/><line class="cls-1" x1="44" x2="40" y1="50" y2="46"/><circle class="cls-1" cx="50" cy="40" r="2"/><circle class="cls-1" cx="18" cy="47" r="7"/><circle class="cls-2" cx="18" cy="47" r="3"/><line class="cls-1" x1="18" x2="18" y1="40" y2="37"/><line class="cls-1" x1="18" x2="18" y1="57" y2="54"/><line class="cls-1" x1="8" x2="11" y1="47" y2="47"/><line class="cls-1" x1="25" x2="28" y1="47" y2="47"/></g></svg>