<?xml version="1.0" ?><svg id="Layer_1" style="enable-background:new 0 0 512 512;" version="1.1" viewBox="0 0 512 512" xml:space="preserve" xmlns="http://www.w3.org/2000/svg" xmlns:xlink="http://www.w3.org/1999/xlink"><style type="text/css">
	.st0{fill:#1EF6F6;}
	.st1{fill:#FDDD7B;}
	.st2{fill:#EAF3F2;}
	.st3{fill:#D4FF93;}
	.st4{fill:#FD535F;}
	.st5{stroke:#000000;stroke-width:2;stroke-linecap:round;stroke-linejoin:round;stroke-miterlimit:10;}
	.st6{fill:none;stroke:#000000;stroke-width:2;stroke-linecap:round;stroke-linejoin:round;stroke-miterlimit:10;}
	.st7{fill:#1EF6F6;stroke:#000000;stroke-width:2;stroke-linecap:round;stroke-linejoin:round;stroke-miterlimit:10;}
</style><g><g><path class="st0" d="M418.22,288.04L418.22,288.04c0,0-42.83-15.31-44.48-35.02l-6.55-49.6c-1.98-23.59,21.44-43.6,51.04-43.6h0    c29.6,0,53.01,20.01,51.04,43.6l-7.31,50.05C460.29,273.17,418.22,288.04,418.22,288.04z"/><path d="M418.22,295.76c-0.88,0-1.76-0.15-2.6-0.45c-7.93-2.84-47.6-18.17-49.58-41.65l-6.51-49.24    c-1.03-12.16,3.16-23.79,11.76-33.14c11.21-12.19,28.32-19.19,46.93-19.19c18.62,0,35.72,7,46.94,19.2    c8.6,9.35,12.78,20.99,11.79,32.77l-7.36,50.51c-1.92,23.02-40.99,37.99-48.8,40.74C419.96,295.61,419.09,295.76,418.22,295.76z     M418.22,167.55c-14.09,0-27.39,5.3-35.56,14.19c-3.99,4.34-8.57,11.51-7.78,21.02l6.51,49.24c0.84,9.83,21.57,21.84,36.84,27.78    c14.94-5.78,35.22-17.52,36.02-26.98l7.36-50.51c0.75-9.05-3.84-16.21-7.83-20.55C445.61,172.86,432.32,167.55,418.22,167.55z"/></g><g><path class="st4" d="M256.64,282.56L256.64,282.56c0,0-82-29.31-85.16-67.05l-12.54-94.96c-3.79-45.16,41.05-83.46,97.71-83.46h0    c56.66,0,101.5,38.3,97.71,83.46l-13.99,95.81C337.19,254.1,256.64,282.56,256.64,282.56z"/><path d="M256.64,290.29c-0.88,0-1.76-0.15-2.6-0.45c-8.87-3.17-86.78-32.18-90.26-73.67l-12.5-94.6    c-1.77-20.94,5.6-41.32,20.71-57.74c20.14-21.9,51-34.46,84.66-34.46s64.52,12.56,84.66,34.46c15.1,16.43,22.47,36.81,20.74,57.38    L348,217.48c-3.43,41.04-80.05,69.28-88.78,72.36C258.38,290.14,257.51,290.29,256.64,290.29z M256.64,44.82    c-28.92,0-56.32,11.02-73.28,29.46c-12.32,13.4-18.1,29.18-16.73,45.62l12.5,94.6c2.21,26.22,54.42,51.13,77.52,59.83    c22.68-8.48,73.83-32.83,76-58.62l14.05-96.28c1.32-15.98-4.46-31.75-16.78-45.15C312.96,55.83,285.56,44.82,256.64,44.82z"/></g><g><path d="M161.58,122.78c-1.68,0-3.38-0.54-4.8-1.68c-3.34-2.66-3.89-7.51-1.25-10.85c0.16-0.2,4.01-5.03,10.72-11.56    c30.83-30.03,82.38-30.77,117.36-1.66c7.17,5.97,10.76,5.52,64.23-8.37l3.98,14.93c-55.8,14.5-64.39,16.73-78.1,5.31    c-28.98-24.11-71.45-23.74-96.69,0.85c-5.95,5.79-9.37,10.07-9.41,10.1C166.11,121.79,163.86,122.78,161.58,122.78z"/></g><g><path d="M367.19,208.93c-1.69,0-3.39-0.55-4.81-1.69c-3.33-2.66-3.88-7.51-1.22-10.84c0.23-0.29,2.38-2.96,6.1-6.59    c18.01-17.51,48.02-18,68.34-1.09c2.46,2.05,2.72,2.27,30.41-4.91l3.95,14.94c-30.74,7.98-35.44,9.18-44.24,1.85    c-14.32-11.92-35.26-11.81-47.67,0.28c-2.94,2.87-4.66,4.99-4.8,5.15C371.71,207.93,369.46,208.93,367.19,208.93z"/></g><g><path d="M144,208.93c-2.27,0-4.52-1-6.04-2.9c-0.14-0.17-1.86-2.29-4.81-5.16c-12.4-12.07-33.33-12.19-47.66-0.27    c-8.82,7.34-13.53,6.12-44.2-1.84c-4.14-1.07-6.63-5.29-5.56-9.42c1.07-4.14,5.27-6.66,9.4-5.55c27.77,7.2,28,6.97,30.47,4.93    c20.32-16.92,50.34-16.44,68.33,1.08c3.73,3.64,5.87,6.31,6.1,6.6c2.66,3.34,2.11,8.19-1.22,10.84    C147.39,208.38,145.69,208.93,144,208.93z"/></g><g><path d="M199.36,154.98c-1.07,0-2.15-0.23-3.17-0.7c-3.76-1.77-5.52-6.01-3.92-9.84c3.12-7.41,15.59-18.89,40.44-9.18    c3.98,1.55,5.95,6.02,4.4,10c-1.55,3.98-6.04,5.95-10,4.4c-16.28-6.32-20.31,0.26-20.71,1.04    C205.01,153.38,202.22,154.98,199.36,154.98z"/></g><g><path d="M310,155.17c-2.94,0-5.74-1.69-7.03-4.51c-0.49-0.91-4.62-7.24-20.69-1c-3.97,1.55-8.45-0.42-10-4.4    c-1.55-3.98,0.42-8.45,4.4-10c24.85-9.66,37.31,1.78,40.44,9.18c1.65,3.93-0.19,8.47-4.12,10.13    C312.02,154.98,311,155.17,310,155.17z"/></g><g><path d="M297.94,306.46c-8.55,0-14.56-2.81-17.88-8.41c-7.46-12.51,4.47-31.78,8.31-37.38c2.4-3.52,7.21-4.43,10.73-2.01    c3.52,2.4,4.43,7.21,2.03,10.73c-5.8,8.51-9.13,18.53-7.8,20.76c0.01,0.02,1.44,1.35,7.69,0.69c4.27-0.35,8.04,2.66,8.49,6.89    c0.44,4.25-2.65,8.04-6.89,8.49C300.98,306.38,299.42,306.46,297.94,306.46z"/></g><g><path d="M215.41,306.46c-1.48,0-3.04-0.08-4.68-0.25c-4.24-0.45-7.33-4.24-6.89-8.49c0.44-4.24,4.2-7.25,8.49-6.89    c5.6,0.6,7.55-0.48,7.68-0.69c1.34-2.23-2-12.25-7.8-20.76c-2.4-3.52-1.49-8.33,2.03-10.73c3.52-2.41,8.32-1.51,10.73,2.01    c3.83,5.61,15.77,24.87,8.32,37.39C229.96,303.65,223.96,306.46,215.41,306.46z"/></g><g><path d="M391.63,229.78c-1,0-2.02-0.2-3-0.6c-3.94-1.66-5.78-6.19-4.13-10.12c1.98-4.72,9.56-12.14,24.04-6.51    c3.98,1.55,5.95,6.02,4.4,10c-1.55,3.98-6.03,5.95-10,4.4c-2.61-1.01-4.16-1.02-4.69-0.92    C396.84,228.39,394.29,229.78,391.63,229.78z M398.74,225.09C398.73,225.09,398.73,225.09,398.74,225.09    C398.73,225.09,398.73,225.09,398.74,225.09z M398.75,225.05c-0.01,0.02-0.02,0.02-0.02,0.04    C398.74,225.07,398.74,225.06,398.75,225.05z"/></g><g><path d="M442.79,229.78c-2.66,0-5.21-1.39-6.63-3.76c-0.54-0.08-2.07-0.08-4.69,0.92c-3.96,1.56-8.46-0.42-10-4.4    c-1.55-3.98,0.42-8.45,4.4-10c14.49-5.63,22.06,1.8,24.04,6.51c1.65,3.93-0.19,8.46-4.13,10.12    C444.81,229.58,443.79,229.78,442.79,229.78z M435.68,225.09C435.69,225.09,435.69,225.09,435.68,225.09    C435.69,225.09,435.69,225.09,435.68,225.09z M435.67,225.05c0.01,0.02,0.02,0.02,0.02,0.04    C435.68,225.07,435.67,225.06,435.67,225.05z"/></g><g><path class="st2" d="M460.06,295.12c0,0,44.96-2.88,43.16,46.11l-85,47.28"/><path d="M418.23,396.23c-2.72,0-5.35-1.43-6.76-3.97c-2.08-3.73-0.73-8.44,3-10.51l81.06-45.09c-0.29-10.74-3.35-19.02-9.11-24.68    c-10.1-9.91-25.74-9.17-25.9-9.16c-4.16,0.21-7.91-3-8.16-7.25c-0.25-4.25,2.96-7.9,7.21-8.17c0.87-0.06,22.45-1.26,37.54,13.42    c9.82,9.56,14.47,23.24,13.83,40.68c-0.1,2.7-1.6,5.15-3.96,6.47l-85,47.28C420.79,395.92,419.5,396.23,418.23,396.23z"/></g><g><path d="M439.82,304.22c-7.23,0.01-10.79-3.27-12.53-6.2c-4.88-8.19,1.49-19.16,4.47-23.5c2.4-3.52,7.21-4.43,10.74-2.01    c3.52,2.41,4.42,7.21,2.02,10.72l0,0c-1.12,1.67-2.2,3.74-2.87,5.43c4.2,0.19,7.45,2.9,7.86,6.93c0.44,4.25-2.65,8.04-6.89,8.49    C441.63,304.17,440.69,304.22,439.82,304.22z"/></g><g><path d="M396.5,304.22c-0.88,0-1.81-0.05-2.8-0.14c-4.24-0.45-7.33-4.24-6.89-8.49c0.42-3.97,3.77-6.93,7.68-6.93    c0.06,0,0.12,0,0.19,0c-0.67-1.68-1.74-3.76-2.88-5.43c-2.38-3.53-1.47-8.33,2.05-10.73c3.52-2.41,8.32-1.49,10.72,2.02    c2.97,4.34,9.34,15.32,4.47,23.5C407.3,300.95,403.73,304.22,396.5,304.22z"/></g><g><path d="M369.43,308.71c-1.36,0-2.73-0.35-3.98-1.11c-3.66-2.2-4.84-6.95-2.63-10.6c0.54-0.89,1.15-1.78,1.86-2.65    c4.04-4.97,13.67-12.22,32.51-5.21c4,1.49,6.04,5.94,4.55,9.94c-1.49,4-5.95,6.05-9.94,4.55c-5.17-1.92-11.97-3.4-15.15,0.5    c-0.23,0.27-0.42,0.56-0.6,0.85C374.61,307.39,372.05,308.71,369.43,308.71z"/></g><g><path class="st1" d="M93.78,283.91L93.78,283.91c0,0,42.83-15.31,44.48-35.02l6.55-49.6c1.98-23.59-21.44-43.6-51.04-43.6h0    c-29.6,0-53.01,20.01-51.03,43.6l7.31,50.05C51.71,269.05,93.78,283.91,93.78,283.91z"/><path d="M93.78,291.64c-0.87,0-1.74-0.14-2.57-0.44c-7.81-2.76-46.88-17.73-48.85-41.22l-7.25-49.58    c-1.05-12.25,3.14-23.89,11.73-33.24c11.22-12.2,28.33-19.2,46.94-19.2c18.61,0,35.72,7,46.93,19.19    c8.6,9.35,12.79,20.99,11.8,32.78l-6.6,49.96c-1.92,23.11-41.6,38.45-49.53,41.29C95.54,291.49,94.66,291.64,93.78,291.64z     M93.78,163.43c-14.1,0-27.39,5.31-35.57,14.2c-3.98,4.34-8.57,11.5-7.77,21.02l7.25,49.58c0.85,9.9,21.12,21.67,36.07,27.45    c15.27-5.95,36-17.94,36.8-27.42l6.6-49.96c0.75-9.15-3.83-16.32-7.82-20.66C121.17,168.73,107.87,163.43,93.78,163.43z"/></g><g><path d="M120.37,232.35c-2.66,0-5.21-1.39-6.63-3.76c-0.54-0.08-2.08-0.08-4.69,0.92c-3.96,1.55-8.46-0.42-10-4.4    c-1.55-3.98,0.42-8.45,4.4-10c14.48-5.62,22.06,1.79,24.04,6.51c1.65,3.93-0.19,8.46-4.13,10.12    C122.4,232.16,121.38,232.35,120.37,232.35z M113.26,227.66C113.27,227.67,113.27,227.67,113.26,227.66    C113.27,227.67,113.27,227.67,113.26,227.66z M113.25,227.62c0.01,0.02,0.02,0.02,0.02,0.04    C113.26,227.65,113.26,227.64,113.25,227.62z"/></g><g><path d="M69.21,232.35c-1,0-2.02-0.2-3-0.6c-3.94-1.66-5.78-6.19-4.13-10.12c1.99-4.72,9.55-12.13,24.04-6.51    c3.98,1.55,5.95,6.02,4.4,10c-1.54,3.98-6.04,5.95-10,4.4c-2.61-1.01-4.16-1.03-4.69-0.92C74.42,230.97,71.87,232.35,69.21,232.35    z M76.32,227.66C76.31,227.67,76.31,227.67,76.32,227.66C76.31,227.67,76.31,227.67,76.32,227.66z M76.33,227.62    c-0.01,0.02-0.02,0.02-0.02,0.04C76.32,227.65,76.33,227.64,76.33,227.62z"/></g><g><path class="st2" d="M51.94,291c0,0-44.96-2.88-43.16,46.11l85,47.28"/><path d="M93.77,392.11c-1.27,0-2.56-0.31-3.75-0.97l-85-47.28c-2.36-1.31-3.86-3.77-3.96-6.47c-0.64-17.44,4.01-31.13,13.83-40.68    c15.08-14.68,36.68-13.45,37.53-13.42c4.26,0.27,7.49,3.95,7.22,8.2c-0.27,4.25-4.05,7.33-8.17,7.22    c-0.15,0-15.82-0.73-25.89,9.16c-5.76,5.65-8.81,13.94-9.11,24.68l81.06,45.09c3.73,2.08,5.07,6.78,3,10.51    C99.12,390.68,96.49,392.11,93.77,392.11z"/></g><g><path d="M72.18,300.09c-0.88,0-1.81-0.05-2.8-0.14c-4.24-0.45-7.33-4.24-6.89-8.49c0.42-4.03,3.75-7.12,7.86-6.93    c-0.71-1.77-1.84-3.93-2.85-5.41c-2.41-3.52-1.51-8.33,2.01-10.74c3.53-2.41,8.34-1.49,10.74,2.01c2.97,4.34,9.35,15.31,4.47,23.5    C82.97,296.82,79.41,300.09,72.18,300.09z"/></g><g><path d="M115.5,300.09c-7.23,0.01-10.8-3.27-12.54-6.2c-4.87-8.19,1.5-19.16,4.47-23.5c2.4-3.52,7.21-4.43,10.74-2.01    c3.52,2.41,4.42,7.21,2.02,10.72c-1.12,1.67-2.2,3.74-2.87,5.43c4.04-0.15,7.45,2.9,7.87,6.93c0.44,4.25-2.65,8.04-6.89,8.49    C117.31,300.04,116.37,300.09,115.5,300.09z"/></g><g><path d="M143.64,307.76c-3.21,0-6.22-2.02-7.31-5.24l-0.76-2.23c-0.07-0.09-0.14-0.19-0.22-0.29c-3.18-3.89-10.01-2.43-15.15-0.5    c-3.96,1.46-8.44-0.54-9.94-4.55c-1.49-4,0.55-8.44,4.55-9.94c18.86-7,28.45,0.26,32.51,5.21c0.7,0.86,1.31,1.74,1.84,2.6    c0.29,0.49,0.54,1,0.72,1.54l1.08,3.17c1.38,4.04-0.78,8.43-4.82,9.8C145.31,307.63,144.46,307.76,143.64,307.76z"/></g><g><path class="st2" d="M335.59,295.66c0,0,87.22-5.06,83.78,88.72l-162.73,90.53"/><path d="M256.65,482.64c-2.72,0-5.35-1.43-6.76-3.97c-2.08-3.73-0.73-8.44,3-10.51l158.85-88.37c0.13-24.4-6.48-43.34-19.7-56.33    c-22.02-21.65-55.68-20.07-56.02-20.08c-4.18,0.11-7.9-3.03-8.13-7.28c-0.24-4.26,3-7.9,7.26-8.14    c1.61-0.11,40.64-2.03,67.61,24.37c17.29,16.92,25.47,41.25,24.33,72.35c-0.1,2.7-1.6,5.15-3.96,6.47L260.4,481.66    C259.21,482.33,257.92,482.64,256.65,482.64z"/></g><g><path class="st2" d="M172.67,295.71c0,0-82.2-5.11-78.76,88.67l162.73,90.53"/><path d="M256.63,482.64c-1.27,0-2.56-0.31-3.75-0.97L90.15,391.14c-2.36-1.31-3.86-3.77-3.96-6.47    c-1.18-32.06,7.03-56.9,24.4-73.82c25.48-24.84,61.06-22.95,62.57-22.85c4.26,0.26,7.49,3.93,7.23,8.2    c-0.27,4.25-3.99,7.43-8.18,7.23c-0.6,0-30.57-1.37-50.93,18.59c-13.3,13.02-19.92,32.45-19.73,57.77l158.86,88.37    c3.73,2.08,5.07,6.78,3,10.51C261.98,481.2,259.35,482.64,256.63,482.64z"/></g><g><path class="st2" d="M301.82,298.53l-45.18,176.38l89.59-113.27l-14.24-30.75l22.33-11.33    C354.32,319.57,349.64,280.73,301.82,298.53z"/><path d="M256.64,482.64c-1.16,0-2.33-0.26-3.43-0.8c-3.27-1.62-4.96-5.31-4.05-8.84l45.18-176.38c0.63-2.45,2.41-4.44,4.79-5.33    c18.65-6.94,33.97-6.87,45.55,0.17c14.98,9.13,17.23,26.45,17.32,27.19c0.38,3.22-1.28,6.35-4.18,7.81l-15.68,7.95l11.11,23.99    c1.23,2.64,0.86,5.75-0.95,8.04L262.7,479.7C261.2,481.6,258.94,482.64,256.64,482.64z M308.28,304.46l-35.12,137.11l64.06-80.99    l-12.24-26.44c-1.75-3.77-0.2-8.26,3.52-10.13l16.74-8.5c-1.37-3.51-3.96-8.07-8.72-10.92    C329.86,300.59,320.38,300.57,308.28,304.46z"/></g><g><path class="st2" d="M211.46,298.53l45.18,176.38l-89.59-113.27l14.24-30.75l-22.33-11.33    C158.96,319.57,163.64,280.73,211.46,298.53z"/><path d="M256.64,482.64c-2.3,0-4.56-1.03-6.06-2.94l-89.59-113.27c-1.81-2.29-2.18-5.4-0.95-8.04l11.1-23.99l-15.68-7.95    c-2.9-1.46-4.57-4.59-4.18-7.81c0.09-0.74,2.34-18.06,17.32-27.19c11.58-7.05,26.89-7.12,45.56-0.17    c2.38,0.88,4.17,2.88,4.79,5.33l45.18,176.38c0.91,3.53-0.78,7.22-4.05,8.84C258.97,482.37,257.8,482.64,256.64,482.64z     M176.06,360.58l64.06,80.99L205,304.46c-12.08-3.89-21.59-3.86-28.24,0.13c-4.76,2.85-7.35,7.41-8.72,10.92l16.74,8.5    c3.71,1.88,5.27,6.36,3.52,10.13L176.06,360.58z"/></g><g><path class="st2" d="M441.82,296.38l-23.6,92.13l46.79-59.17l-7.44-16.06l11.66-5.92c0,0-0.53-4.37-3.59-8.13    C462.11,294.91,455.2,291.4,441.82,296.38z"/><path d="M418.22,396.23c-1.16,0-2.33-0.26-3.43-0.8c-3.27-1.62-4.96-5.31-4.05-8.84l23.6-92.12c0.63-2.45,2.41-4.44,4.79-5.33    c18.89-7.03,28.47,0.26,32.52,5.21c4.27,5.23,5.14,11,5.27,12.1c0.38,3.22-1.28,6.34-4.18,7.8l-5.01,2.54l4.3,9.3    c1.23,2.64,0.86,5.75-0.95,8.04l-46.79,59.16C422.78,395.21,420.52,396.23,418.22,396.23z M448.25,302.44l-13.51,52.73L456,328.28    l-5.43-11.75c-1.75-3.77-0.2-8.26,3.52-10.13l5.24-2.66C456.81,301.14,452.41,301.36,448.25,302.44z"/></g><g><path class="st2" d="M70.18,292.26l23.6,92.13l-46.79-59.17l7.44-16.06l-11.66-5.92c0,0,0.53-4.37,3.59-8.13    C49.89,290.78,56.8,287.28,70.18,292.26z"/><path d="M93.78,392.11c-2.3,0-4.56-1.03-6.06-2.94l-46.79-59.16c-1.81-2.29-2.17-5.4-0.95-8.04l4.3-9.3l-5.02-2.55    c-2.9-1.46-4.57-4.6-4.18-7.82c0.14-1.1,1.02-6.86,5.29-12.09c4.05-4.95,13.68-12.22,32.51-5.21c2.38,0.88,4.17,2.88,4.79,5.33    l23.6,92.13c0.91,3.53-0.78,7.22-4.05,8.84C96.11,391.85,94.94,392.11,93.78,392.11z M56,324.16l21.27,26.89l-13.51-52.74    c-4.14-1.07-8.54-1.3-11.07,1.31l5.23,2.66c3.71,1.88,5.27,6.36,3.52,10.13L56,324.16z"/></g></g></svg>